<?xml version="1.0" encoding="UTF-8"?> <svg xmlns="http://www.w3.org/2000/svg" viewBox="0 0 265.3 33.77"><defs><style>.cls-1{fill:#ffffff;}.cls-2{fill:#e98c23;}.cls-3{fill:#925022;}.cls-4{fill:#fff;}</style></defs><title>logosmall</title><g id="Layer_2" data-name="Layer 2"><g id="branding"><path class="cls-1" d="M13.68,32.79l-.14-5.13h-5c-.18,1.62-.27,3.24-.41,4.81l-2,.23L0,32.34C1.08,23,2.92,12,7,3.28h6.79l4.5-.36A176,176,0,0,1,22.9,32.43ZM9.36,20.33h3.82a73.48,73.48,0,0,0-1.12-9.9h-.68A52.47,52.47,0,0,0,9.36,20.33Z"></path><path class="cls-1" d="M25.4,32.7l-.81-.41L26.8,3.19l10.48-.27,1.3.27,2.16,10.66a31.7,31.7,0,0,1,.59,5.8h.31a35.18,35.18,0,0,1,.72-5.85L44.75,3.28l9.76-.36,1.21.27L57,32.52l-8,.22-1.21-.4.23-4.14-.5-7.65c-.09-1.75-.09-3.33-.09-4.72V13.26h-.4a52.16,52.16,0,0,1-1,7.34L43.71,31.75l-5.89.36-1.4-.49-2-11.2c-.49-2.84-.76-5.36-.9-7.11h-.4c0,.81,0,1.66,0,2.56,0,1.31,0,2.79-.18,4.59l-.63,7.78.05,4.28Z"></path><path class="cls-1" d="M86.06,3.05l17.55.23.63,2.56L96.73,25.27l4.9-.09,2.25-.27.54,1.35-.23,6.44L86,32.52l-.45-3.11L93.4,10.34l-4.41,0-2.12.36L86.24,9Z"></path><path class="cls-1" d="M107.3,7.82l-1.12-4.36,9.58-.36,1.35.36-1.17,4.67V27l1.17,5.31-9.94.36-1-.36,1.12-5Z"></path><path class="cls-1" d="M120.6,32.7,119.39,32l.13-3.51V3.28l6.66-.23,1.49.36,6.52,11.52,2.29,6.39.27-.05-1.17-6.7V9.93l-.31-6.47,6-.41,1.53.77-.18,5.75v23l-6.71.22-1.34-.36-6.75-11.6-2.12-6-.22.05,1.08,6.34v6.61l.18,4.68Z"></path><path class="cls-1" d="M163.5,32.11a26,26,0,0,1-7.06.86c-8.5,0-11.52-3.87-11.52-14.17a38.84,38.84,0,0,1,2.39-13.72c2-1.17,6.07-2.25,11.06-2.25A30.16,30.16,0,0,1,166.16,4l-.77,7.15a17.73,17.73,0,0,0-5.49-.85,12.67,12.67,0,0,0-5.35,1.08,28.47,28.47,0,0,0-1,7c0,5.85.95,7.69,5.08,7.69h.23V21.86l-1-3.2,1.67-1,7.11.45V30.4Z"></path><path class="cls-1" d="M174.08,8.27l-.27-4.45L178,3.28h10.85l2.65-.14.4,6.21L191.39,11l-2.87-.27-5.81-.18V17H187l2.65-.13.41,6-.59,1.57-2.88-.23h-3.87v2.79l.36,5.27-8.41.36-.85-.36.27-5.45Z"></path><path class="cls-1" d="M204.05,33c-8.5,0-10.88-4.14-10.88-14,0-6.39,1.35-11.92,2.25-13.72a20.76,20.76,0,0,1,10-2.43c7.69,0,10.39,4,10.39,14.75,0,6.16-.9,10.62-2,13.05C211.84,32.07,207.61,33,204.05,33Zm3.6-15.12c0-5.31-.49-7.24-3.06-7.24a5.63,5.63,0,0,0-2.52.54,36.75,36.75,0,0,0-.63,7.33c0,5.26.54,7,3.24,7A5.67,5.67,0,0,0,207,25,30.47,30.47,0,0,0,207.65,17.85Z"></path><path class="cls-1" d="M228.5,33c-8.5,0-10.88-4.14-10.88-14,0-6.39,1.35-11.92,2.25-13.72a20.79,20.79,0,0,1,10-2.43c7.69,0,10.39,4,10.39,14.75,0,6.16-.9,10.62-2,13.05C236.29,32.07,232.06,33,228.5,33Zm3.6-15.12c0-5.31-.49-7.24-3.06-7.24a5.63,5.63,0,0,0-2.52.54,37.79,37.79,0,0,0-.62,7.33c0,5.26.54,7,3.23,7a5.67,5.67,0,0,0,2.3-.54A30.47,30.47,0,0,0,232.1,17.85Z"></path><path class="cls-1" d="M242.77,8.27l-.32-4.41,2.16-.58h6.16c1.44-.14,3.06-.27,4.32-.27,8.1,0,10.21,4.68,10.21,14.66a32.47,32.47,0,0,1-2.25,12.78c-1.89,1.35-5.84,2.43-10.57,2.43-2.38,0-6-.09-9.08-.36l-.81-.36.18-5.27Zm8.63,2.07V26.22a7.35,7.35,0,0,0,1.31.09,7.2,7.2,0,0,0,3.28-.68,31.91,31.91,0,0,0,.77-7.46c0-5.22-.86-7.83-4.19-7.83Z"></path><path class="cls-2" d="M79.79.51,73.54.94,65.17,1c-4.41,9.53-5.39,20.93-6.51,31.08C61.13,34,63.73,34,66.28,33.52h0l.74-.14c1.89-.41,6.87-1.95,9.26-6.83A15.62,15.62,0,0,1,73.81,33a38.58,38.58,0,0,0,9.81-.3C83.13,23.68,82.55,12,79.79.51Z"></path><polygon class="cls-3" points="68.99 10.14 67.63 20.61 76.65 20.11 76.25 17.04 68.99 10.14"></polygon><polygon class="cls-3" points="65.23 0.99 80.42 3.12 81.17 7.17 65.27 6.92 65.23 0.99"></polygon><polygon class="cls-2" points="65.23 0.99 81.27 0 82.52 4.46 66.28 5.45 65.23 0.99"></polygon><polygon class="cls-4" points="68.99 10.14 75.65 10.29 77.42 18.69 68.98 19.4 68.99 10.14"></polygon></g></g></svg> 