<?xml version="1.0" encoding="UTF-8"?> <svg xmlns="http://www.w3.org/2000/svg" version="1.1" viewBox="0 0 1024 1024"><defs><style> .st0 { fill: #d43328; } .st1 { fill: #1e7248; } .st2 { fill: none; } .st3 { fill: #fdfdfd; } </style></defs><g id="Layer_5"><g><path class="st2" d="M559.3,141.2c11.6-5.3,22.7-12.9,15.8-27.1-2.3-4.8-11.7-15.1-16.6-17.4-7.1-3.3-9.7-1.8-15.6,3l-43.7,46.4h48.6c.6,0,9.9-4.1,11.5-4.8Z"></path><path class="st2" d="M395.4,138c1.8,1.2,15.7,8,16.6,8h49.7l-47.9-49.8c-9.1-3.8-19.5,7.5-24.6,14.1-8.9,11.7-5.4,20.3,6.2,27.7Z"></path><path class="st0" d="M541.3,811.9v-422.5h213.6c5.4,0,17,11.5,17,17v105.9c7.5.3,15,.9,22.3,2v-103.3c-.7-8.1-3-13.2-6.6-19.7-7.2-13-16.9-21.6-32.6-23H213c-19.1,2-36.4,18.8-38,38v387.4c2,19.9,17.3,35.8,36.9,39.2h382.8c-4.6-6.7-8.8-13.8-12.6-21.1h-40.8ZM424.3,811.9h-210.1c-.5,0-7-3-8-3.7-6.5-4.3-9.7-11.4-10.2-19.1v-376.9c-2.5-8.6,10.6-22.8,18.2-22.8h210.1v422.5ZM520.2,811.9h-74.9v-422.5h74.9v422.5Z"></path><path class="st0" d="M780.7,336.8c23.8-1.9,39.6-17.9,41.5-41.6,2.3-29.5.4-67.3-1.2-97.1-.8-15.2,2.1-23.1-8.2-36.3-15.2-19.5-35.3-14.5-56.7-14.6-55.2-.1-110.4-1.1-165.7-1.2,12.8-17.5,10-34.3-2.4-50.9-14.4-19.3-36.5-30.6-57.9-13.4l-49.3,51.4c-2.8.5-34.2-35.5-39-40.3-16.2-16.4-32.1-28.5-54.4-11.1-20.3,15.9-35,40.6-17,64.3h-191.3c-15.6,0-35.1,17.8-36.9,33.3,3.5,38.7-4.8,86.1.3,123.8,2.6,19.3,19.9,32.7,38.9,33.7h599.3ZM785.3,168.2c6.7,0,14.1,10.4,14.7,16.9,3.5,35.7-2.6,77.1-.2,113.5.7,5-9.5,15.9-13.4,15.9h-240.5v-146.3h239.3ZM542.9,99.6c5.9-4.8,8.4-6.2,15.6-3,4.9,2.2,14.2,12.5,16.6,17.4,6.9,14.2-4.2,21.9-15.8,27.1-1.7.8-10.9,4.8-11.5,4.8h-48.6l43.7-46.4ZM524.9,168.2v146.3h-88.9v-146.3h88.9ZM389.2,110.3c5.1-6.6,15.5-17.9,24.6-14.1l47.9,49.8h-49.7c-.9,0-14.8-6.8-16.6-8-11.6-7.4-15.1-16-6.2-27.7ZM163.2,295.3c-2.7-35.8,2-75,.2-111.1-.3-4.9,9.3-15.9,13.4-15.9h238.2v146.3h-238.2c-7.4,0-13-12.7-13.5-19.3Z"></path><path class="st0" d="M196,412.2v376.9c.5,7.7,3.6,14.8,10.2,19.1,1,.7,7.5,3.7,8,3.7h210.1v-422.5h-210.1c-7.5,0-20.7,14.1-18.2,22.8Z"></path><path class="st0" d="M754.9,389.4h-213.6v422.5h40.8c-14.7-28.3-23-60.4-23-94.5,0-113.3,91.9-205.2,205.2-205.2s5,0,7.5.2v-105.9c0-5.5-11.5-17-17-17Z"></path><rect class="st3" x="445.3" y="389.4" width="74.9" height="422.5"></rect><path class="st0" d="M546,314.5h240.5c3.9,0,14-10.9,13.4-15.9-2.5-36.3,3.6-77.7.2-113.5-.6-6.5-8-16.9-14.7-16.9h-239.3v146.3Z"></path><path class="st0" d="M414.9,168.2h-238.2c-4,0-13.7,11-13.4,15.9,1.9,36.2-2.8,75.3-.2,111.1.5,6.5,6.1,19.3,13.5,19.3h238.2v-146.3Z"></path><rect class="st3" x="436" y="168.2" width="88.9" height="146.3"></rect></g></g><g id="Layer_4"><path class="st1" d="M630.2,587.3c104-107.2,293-50.2,317.3,97.5,26.3,159.9-147.3,276-284.6,188.6-97.8-62.3-113.4-202.9-32.7-286.1h0ZM749.6,563.3c-134.9,9.9-189,181.9-87.3,270.7,82.4,71.9,212.6,37.2,248.5-65.5,37.9-108.5-48.5-213.5-161.2-205.2h0Z"></path><path class="st0" d="M686.1,654.5c1.2-4.9,17.8-17.7,22.7-21,24.7-16.5,56.2-22.9,84.7-13.1,4.5,1.5,16.2,4.6,13.7,10.4-14.1,27-24.1,58.2-38.3,84.9-2.8,5.3-5.6,11.7-12.5,7.8-20.4-21.8-46.1-40.9-66.4-62.5-1.5-1.6-4.5-4.2-4-6.4ZM731.4,664c3.4,18.3,31.7,16.3,31.4-4.2-.4-23.8-35.7-18.5-31.4,4.2Z"></path><path class="st0" d="M849.3,646.6c61.4-8.8,63.5,85,.9,77.7-42.9-5-44.7-71.3-.9-77.7Z"></path><path class="st0" d="M664.8,694.1c52.3-7.1,59.5,73.5,7.7,76.7-48.2,3-55.4-70.3-7.7-76.7Z"></path><path class="st0" d="M678.7,646.7c-3.3,1-17.6-13.3-17.5-15.8.1-3.5,13.5-15.9,17-18.8,31.8-27.3,82-39.5,122.3-26.5,4.3,1.4,19.5,6.8,21.1,10.3.9,2.1-6.7,19.4-9.5,20.3-2.3.7-13.6-5.1-17.2-6.3-34.4-10.9-74.4,0-101.4,22.9-2.8,2.3-13.1,13.5-14.7,14h0Z"></path><path class="st1" d="M798.8,742c10.9-15.4,20.5-3.1,31.4,2.9,6.8,3.7,14.1,6.3,21.7,7.9,9.9,2.1,24.9,0,22.1,15.9-3.8,21.3-38.3,9.2-51,3.4-9.9-4.5-33.7-16.5-24.1-30.1h0Z"></path><path class="st0" d="M800.4,802.7c28-4.8,28.3,38.1.8,34.7-19-2.4-18.8-31.6-.8-34.7Z"></path></g></svg> 