<?xml version="1.0" encoding="UTF-8"?> <svg xmlns="http://www.w3.org/2000/svg" id="Layer_2" viewBox="0 0 1021.51 1021.51"><g id="Layer_1-2"><path d="M822,294h31.5c1.59,0,11.52,4.33,13.53,5.47,27.87,15.66,21.28,45.45,21.96,72.54,22.27-1.43,43.85,11.53,46.88,34.62l.11,338.87c-2.72,19.17-18.92,34.59-38.45,35.55H120.45c-24.19-1.57-38.65-17.76-40.44-41.56v-328.97c1.62-14.44,8.13-26.85,21.3-33.7,2.45-1.27,12.28-4.31,12.62-5.43-.93-11.51-1.89-25.32-.92-36.87,1.57-18.75,14.34-36.61,33.37-38.55.41-.04,3.28-2.97,7.11-2.97h30.5v-40.5c0-18.3,22.34-38.5,40.52-38.48l555.03-.06c19.29-.68,42.45,18.98,42.45,38.55v41.5ZM791,294v-38.5c0-4.75-9.68-10.39-14.46-9.54-184.09.54-368.38-.9-552.35.72-3.77.26-9.18,6.49-9.18,9.82v37.5h576ZM858,372v-37.5c0-4.06-8.98-10.53-13.46-9.54-230.43.55-461.05-.9-691.36.72-4.47.56-9.18,6.67-9.18,10.82v35.5h714ZM210,404h-90.5c-3.36,0-8.5,6.25-8.5,9.5v84.5c51.54,2.04,97.1-43.05,99-94ZM111,529v93.5c0,2.42,11.1,1.29,13.49,1.51,62.96,5.89,114.06,62.17,116.09,125h522.43c1.11-74.06,68.33-132.51,141.99-125.02v-95c-16.42.5-32.86-.37-48.76-4.74-52.72-14.47-93.01-65.35-93.81-120.28H238.99c1.4,68.43-60.34,126.58-127.99,125.02ZM905,498v-86.5c0-2-5.5-7.5-7.5-7.5h-104.5c1.03,12.25,3.47,23.78,8.48,35.02,11.89,26.68,35.41,47.41,63.76,55.24,13.31,3.68,25.91,4.23,39.77,3.73ZM210,749c-3.4-50.89-46.94-95.62-99-95v84.5c0,2.81,6,10.5,8.5,10.5h90.5ZM905,654c-21.09-.87-41.04,1.59-59.67,11.83-30.89,16.97-49.45,48.19-52.33,83.17h103.5c2.22,0,8.5-6.29,8.5-8.5v-86.5Z" style="fill:#017d5e;"></path><path d="M627.61,477.38c65.68,82.62,29.44,210.09-69.84,244.89-126.99,44.52-248.14-74.99-203.04-202.04,41.06-115.67,197.4-137.8,272.88-42.85ZM427.58,473.57c-64.94,49.87-68.41,143.13-6.59,196.94,91.37,79.54,232.25-5.1,205.7-123.7-19.57-87.42-127.38-128.32-199.11-73.24Z" style="fill:#017d5e;"></path><path d="M519.04,489.96c17.1,2.7,31.68,17.25,35.47,34.03,1.14,5.06,3.98,15.02-3.06,16.95-3.43.94-17.24,1.35-20.93,1.04-12.39-1.02-8.07-4.12-11.3-12.7-8.99-23.95-47.44-7.98-33.65,12.65,6.84,10.23,42.29,20.28,55.35,30.65,32.21,25.57,17.26,76.33-21.87,83.46-.47,4.31,1.28,15.2-2.45,18.05-1.75,1.34-20.77,1.35-24.02.84-8.17-1.29-4.95-12.95-5.56-18.94-19.74-.55-36.21-14.3-41.5-33.01-1.76-6.22-5.89-19.51,3.05-20.93,3.44-.54,25.04-.65,27.73.14,6.23,1.83,3.64,14.77,9.31,20.69,17.54,18.33,53.57-6.81,27.7-24.7-16.59-11.47-39.71-14.8-54.33-30.67-20.47-22.23-13.97-58.21,12.36-72.69,3.06-1.68,14.76-5.11,15.23-5.77,1.87-2.65-1.84-14.72,4.46-17.54,2.94-1.32,22.4-1.02,24.97,1,3.49,2.74,2.83,13.14,3.05,17.45Z" style="fill:#e8252e;"></path><rect width="1021.51" height="1021.51" style="fill:none;"></rect></g></svg> 