<?xml version="1.0" encoding="UTF-8"?> <svg xmlns="http://www.w3.org/2000/svg" id="Layer_2" viewBox="0 0 994.72 813.15"><path d="M818.55,20.95c3,3.69,9.47,18.53,11.92,23.84,11.24,24.34,22.16,49.97,32.78,74.49.38.88.04,2.88.72,4.44,3.2,7.41,21.71,45.54,21.26,49.73-.8,7.51-14.51,10.91-20.36,15.24-10.58,7.83-17.34,18.94-19.5,31.9-5.39,32.4,24.76,55.1,55.52,48.81,9.33-1.91,18.96-11.87,26.47-1.92,2.53,3.35,8.13,16.74,10.39,21.65,5.15,11.19,9.91,22.96,14.9,34.27,14.35,32.52,27.46,65.76,41.72,98.33,1.68,20.07-1.98,40.01-19.35,52.14-.33-7.38-5.72-18.06-5.87-24.74-.15-6.65,5.92-17.82,2.53-26.31l-57.78-133.69c-71.55,21.93-124.52-61.82-67.04-114,4.25-3.86,11.75-5.07,10.44-11.76l-53.89-123.54c-9.69-16.95-27.63-21.67-45.44-14.68L35.86,348.98c-10.43,7.15-17.02,22.66-13.13,34.99l56.98,133.01c73.26-21.13,124.2,64.14,64.63,116.29-3.59,3.14-11.75,5.44-10.93,10.85l57.09,129.29c6.38,13.3,21.29,19.69,35.69,17.68l443.36-197.43,3.79.76,11.11,13.55c-.21.13-.04,2.86-2.37,4.28-7.71,4.68-17.41,6.09-24.45,12.11l-4.46.69c-12.49,6.68-25.81,11.56-38.75,17.19-37.05,16.11-73.49,34.25-110.25,50.66-23.65,10.55-47.79,20.71-71.51,31.29-12.37,5.51-24.87,10.88-37.25,16.39-36.3,16.16-72.38,33.24-108.76,49.17-34.65,15.17-74.85,40.86-107.27,5.96-11.62-12.51-26.4-52.47-34.27-70.02-13.43-29.98-26.77-60.81-38.43-91.28l2.67-7.05c2.66.04,15.02-6.41,17.78-8.29,40.95-27.93,19.57-88.81-33.26-82.43-9.36,1.13-16.14,7.99-26.24,5.79-.89-5-8.57-14.96-10.43-19.37-13.92-33.02-27.9-66.57-41.72-99.82-12.04-28.97-27.45-56.61-.78-84.96,6.98-7.42,15.81-9.98,23.13-16.35,1.99-.18,4.04.26,5.94-.7,7.95-3.6,15.84-7.83,23.85-11.22,37.05-15.68,73.52-32.8,110.25-49.17,28.39-12.65,56.67-26.13,84.92-38.74,7.89-3.52,15.93-6.9,23.84-10.43,36.73-16.4,73.53-32.77,110.25-49.17,30.23-13.5,60.65-26.74,90.88-40.23,6.05-2.7,12.3-6.45,17.88-8.94,35.9-16,72.64-31.63,108.76-47.68,33.83-15.03,67.49-31.54,101.31-46.19C731.54,12.62,757.86-.46,774.64.01c13.28.38,35.55,10.64,43.91,20.94Z" style="fill:#d43328;"></path><path d="M895.79,320.67l17.38,41.44c-142.03-111.61-335.23,46.97-257.02,208.59-119.26,50.67-236.34,106.37-355.07,158.21-13.37,5.84-59.82,28.8-70.32,29.57-7.72.57-15.06-2.31-19.86-8.45l-43.2-98.51c-.35-3.46,10.51-14.13,13.52-18.64,37.01-55.59,7.2-131.67-58.37-144.93-5.39-1.09-24.08-1.76-26.17-3.63-10.22-22.96-21.23-45.79-30.79-69.03-7.86-19.12-21.43-38.06,2.68-51.49,201.56-88.77,401.76-180.58,602.96-270.11,25.92-11.53,54.32-25.87,80.44-35.77,14.44-5.47,23.09-5.85,32.62,8.16l39.63,91.49c-5.85,8.73-13.46,16.33-18.36,25.75-34.62,66.53,17.82,139.51,89.93,137.34ZM378.64,372.91c-4.4.86-13.57,4.78-14.28,9.69l61.01,139.54c5,6.42,27.88-3.85,21.46-14.01l-61.35-135.34c-2.31-.68-4.54-.33-6.84.12ZM348.12,556.92l4.95,1.83,51.15-23.29.17-2.59c-19.47-41.32-35.43-85.64-55.36-126.57-2.38-4.88-5.32-14.47-10.93-14.49-9.49-.03-35.8,17.93-46.88,20.33l-4.23,7.12,61.13,137.66ZM256.48,428c-3.7.73-14.88,5.82-15.78,9.68l61.01,139.58c4.94,6.34,28.17-3.52,21.46-14.01l-61.35-135.37c-1.82-.6-3.53-.24-5.34.12ZM219.23,448.94c-2.55-4.16-21.1,4.82-21.72,5.81-.95,1.52-.3,5.64.11,7.61l58.9,133.29c3.56,9.58,27.71-1.41,23.89-10.4l-61.18-136.31Z" style="fill:#d43328;"></path><g id="Layer_4"><path d="M699.19,391.97c84.3-86.9,237.5-40.69,257.2,79.03,21.32,129.61-119.4,223.72-230.69,152.88-79.28-50.5-91.92-164.47-26.51-231.91h0ZM795.97,372.51c-109.35,8.02-153.2,147.45-70.76,219.43,66.79,58.28,172.33,30.15,201.43-53.09,30.72-87.95-39.31-173.06-130.67-166.33h0Z" style="fill:#1e7248;"></path><path d="M763.86,532.7c37.74-5.41,39.03,52.25.55,47.76-26.37-3.07-27.48-43.83-.55-47.76Z" style="fill:#d43328;"></path><path d="M849.77,508.52c37.74-5.41,39.03,52.25.55,47.76-26.37-3.07-27.48-43.83-.55-47.76Z" style="fill:#d43328;"></path><path d="M757.8,416.9c42.39-5.76,48.23,59.58,6.24,62.17-39.07,2.43-44.91-56.98-6.24-62.17Z" style="fill:#d43328;"></path><path d="M836.34,481.01c-20.86-13.45-1.12-17.22,9.55-23.99,6.59-4.24,11.65-9.21,15.29-14.74,4.76-7.19,4.18-19.75,27.14-12.56,30.75,9.66,7.12,33.24-3.56,41.5-8.29,6.45-29.98,21.57-48.4,9.71h0l-.02.08Z" style="fill:#1e7248;"></path><path d="M837.15,413.57c22.7-3.89,22.94,30.88.65,28.13-15.4-1.95-15.24-25.61-.65-28.13Z" style="fill:#1e7248;"></path></g></svg> 