<?xml version="1.0" encoding="UTF-8"?> <svg xmlns="http://www.w3.org/2000/svg" id="Layer_2" viewBox="0 0 819 819"><g id="Layer_1-2"><path d="M433,164v136.5c0,15.21-21.04,35.19-36.46,35.54l-345.03-.05c-14.62-.2-35.51-20.3-35.51-34.49v-137.5h417ZM378.38,286.39c18.87-14.39,14.12-44.3-9.84-46.43-10.39-.93-35.98-1.24-45.95.13-25.58,3.51-27.41,43.5-1.84,49.66,6.33,1.52,15.12,1.21,21.71,1.3,8.76.12,16.41-.17,25.05-1.02,1.3-.13,2.61.81,4.49.51,3.42-.54,4.5-2.71,6.37-4.14Z" style="fill:#e43e32;"></path><path d="M433,126H16v-40.5c0-14.7,20.72-33.24,35.51-33.49l342.03-.05c15.81-1.07,39.46,19.08,39.46,34.54v39.5Z" style="fill:#e43e32;"></path><path d="M462,342V60h188.49c77.27,3.87,139.5,32.19,147.41,116.61,8.28,88.39-20.8,159.06-118.36,165.43l-217.54-.04ZM484,80v242l197.54.04c74.45-6.15,101.04-59.2,97.51-128.59-4.21-82.7-52.14-109.92-129.51-113.49l-165.54.04Z" style="fill:#177e43;"></path><path d="M168,481.01c-3,17.54-20.67,50.08-39.75,52.76-10.83,1.52-21.66-7.12-33.78-6.83-17.99.43-26.26,15.17-44.69.06-33.18-27.2-51.65-105.35-6.46-129.19,25.47-13.43,36.77,8.96,59.46,2.46,16.25-4.66,23.74-10.6,42.17-4.73,4.41,1.4,20.08,11.57,20.1,15.96.02,2.94-6.47,3.57-9.05,5.99-18.89,17.74-15.6,57.36,12,63.51Z" style="fill:#177e43;"></path><path d="M56,663c14.35,52.16,91.04,54.25,105,1h-52v-35h91c-.46,9.02.61,18.59.04,27.54-6.04,95.07-133.41,112.59-174.04,29.46l30-23Z" style="fill:#177e43;"></path><path d="M242,472v51h-28v-156h69.5c1.68,0,9.08,2.05,11.28,2.72,45.17,13.71,44.58,86.19.19,99.75-1.48.45-9.68,2.53-10.47,2.53h-42.5ZM242,448h35.5c1.64,0,10.36-3.64,12.19-4.81,15.49-9.87,14.38-38.32-1.66-47.72-2.34-1.37-10.23-4.47-12.53-4.47h-33.5v57Z" style="fill:#177e43;"></path><path d="M306.5,563c37.45,3.8,56.98,40.58,41.67,74.67-6.91,15.39-25.57,28.33-42.67,28.33h-37.5v57h-28v-160h66.5ZM268,642c6.82-.21,13.72.27,20.54.04,5.05-.17,14.05-.55,18.72-1.28,20.14-3.17,26.36-32.41,11.68-45.2-2.03-1.77-11.14-6.56-13.44-6.56h-37.5v53Z" style="fill:#177e43;"></path><path d="M434,523h-25v-15c-2.41-.52-1.62.4-2.23,1.31-3.99,5.89-13.91,13.14-20.99,14.97-56.1,14.58-74.58-60.62-17.26-68.26l38.49-1.01c.17-7.55.75-14.15-4.01-20.5-7.39-9.85-28.24-10.56-35.43-.44-2.09,2.94-3.27,10.82-5.97,10.89-6.3.17-17.42-4.74-24.6-3.96,6.23-29.48,33.55-38.57,61-34.47,16.72,2.5,36,17.83,36,35.97v80.5ZM407,473h-21.5c-.3,0-1.7.91-2.96,1.04-9.03.94-20.38,1.05-22.29,12.7-3.73,22.77,31.32,21.96,42.75,6.76,5.03-6.69,4.14-12.53,4-20.5Z" style="fill:#177e43;"></path><path d="M56,663l-30,23c-37.21-76.14,42.32-163.06,120.21-126.71,4.12,1.92,24.82,14.59,24.8,18.2-.02,3.28-11.7,13.45-14.52,16.5-1.99,2.16-6.86,10.42-9.13,10.86-7.29-3.52-12.52-9.41-20.37-12.33-44.18-16.45-82.87,27.31-70.99,70.49Z" style="fill:#e43e32;"></path><path d="M452,723h-24v-15c-3.7-.03-3.72,4.2-5.94,6.56-9.03,9.54-27.91,12.91-40.3,10.19-36.59-8.03-38.66-60.34.05-68.45,13.77-2.88,30.98-1.32,45.21-2.29,1.85-19.58-7.73-29.31-27.39-26.89-10.47,1.29-14.69,7.37-17.21,16.96l-25.4-4.08c6.75-32.34,45.78-41.85,73-29.49,9.23,4.19,22,18.58,22,29v83.5ZM427,672c-12.96,2.77-28.86-1.73-40.69,4.8-5.45,3.01-7.45,6.2-7.21,12.6.84,22.89,44.75,16.7,47.82-5.99.49-3.65-.15-7.7.08-11.41Z" style="fill:#177e43;"></path><path d="M465.5,407l30.49,90,28.51-90h26.5c-1.14,6.4-3.76,13.23-5.98,19.52-12.13,34.34-25.12,77.52-40.16,109.84-4.59,9.86-19.59,28.64-31.36,28.64h-23.5c-.07-8.03.48-16.08-1-24,7.75-.73,15.1,3.29,22.35-1.15,4.34-2.66,8.86-12.37,8.7-17.32l-43.05-115.53h28.5Z" style="fill:#177e43;"></path><path d="M483,608l28.99,82,27.01-82h28l-61,158h-27c5.24-15.97,13.46-31.18,18.83-47.26l-43.83-110.74h29Z" style="fill:#177e43;"></path><path d="M131,346c2.26,25.42-14.04,46.23-40,47-.8-24.56,14.36-45.75,40-47Z" style="fill:#177e43;"></path><path d="M378.38,286.39c-1.88,1.43-2.95,3.6-6.37,4.14-1.88.3-3.19-.64-4.49-.51-8.64.85-16.29,1.14-25.05,1.02-6.59-.09-15.38.23-21.71-1.3-25.58-6.16-23.74-46.15,1.84-49.66,9.97-1.37,35.56-1.06,45.95-.13,23.96,2.14,28.71,32.04,9.84,46.43Z" style="fill:#fefefd;"></path><path d="M484,80l165.54-.04c77.37,3.58,125.29,30.79,129.51,113.49,3.54,69.39-23.06,122.44-97.51,128.59l-197.54-.04V80ZM760,194c.96-26.98-9.09-55.02-31.08-71.42-42.88-31.97-104.82-18.71-154.92-21.58v47h24.5c.46,0,7.5,2.94,8.45,3.55,16.35,10.45,14.35,43.13-3.27,51.63-1.09.53-7.59,2.82-8.18,2.82h-21.5v98h106.49c13.22-1.89,26.46-4.52,38.39-10.62,33.21-16.98,43.43-51.99,41.12-87.38h-31v-58h11v46h20ZM535.5,138c-10.93-1.55-25.19,1.15-36.5,0v60h37.5c1.39,0,8.27-3.15,9.83-4.17,19.33-12.59,14.2-52.29-10.83-55.83ZM574,194h18.5c1.12,0,7.35-3.34,8.5-4.5,6.36-6.38,5.77-21.63-2.05-26.96-.74-.5-5.06-2.55-5.45-2.55h-19.5v34ZM547,209h-47v95h47v-95Z" style="fill:#fefefd;"></path><path d="M242,448v-57h33.5c2.3,0,10.19,3.09,12.53,4.47,16.04,9.41,17.15,37.86,1.66,47.72-1.83,1.17-10.56,4.81-12.19,4.81h-35.5Z" style="fill:#fefefd;"></path><path d="M268,642v-53h37.5c2.3,0,11.42,4.79,13.44,6.56,14.67,12.79,8.45,42.03-11.68,45.2-4.67.74-13.66,1.12-18.72,1.28-6.83.23-13.72-.25-20.54-.04Z" style="fill:#fefefd;"></path><path d="M407,473c.14,7.97,1.03,13.81-4,20.5-11.43,15.2-46.49,16.01-42.75-6.76,1.91-11.65,13.27-11.76,22.29-12.7,1.27-.13,2.66-1.04,2.96-1.04h21.5Z" style="fill:#fefefd;"></path><path d="M427,672c-.24,3.71.41,7.76-.08,11.41-3.07,22.7-46.98,28.88-47.82,5.99-.23-6.4,1.77-9.59,7.21-12.6,11.83-6.53,27.73-2.04,40.69-4.8Z" style="fill:#fefefd;"></path><path d="M760,194h-20v-46h-11v58h31c2.31,35.39-7.91,70.4-41.12,87.38-11.94,6.1-25.18,8.73-38.39,10.61h-106.49s0-97.99,0-97.99h21.5c.59,0,7.09-2.3,8.18-2.82,17.62-8.5,19.62-41.18,3.27-51.63-.95-.61-8-3.55-8.45-3.55h-24.5v-47c50.09,2.87,112.04-10.39,154.92,21.58,22,16.4,32.04,44.43,31.08,71.42ZM660,160c-.2-2.13.88-12-1.5-12h-30l-1.5,58h33v-12h-21v-12h20v-12h-20v-10h21ZM721,205.99l-19.49-57c-1.74-2.09-10.33-.64-13.4-.89l-19.1,57.89c2.63-.46,9.18.89,11.06-.44,1.11-.78,2.17-8.77,3.84-10.94,1.18-1.54,17.17-.26,20.47-.48,2.5.84,3.56,10.95,4.78,11.72,1.47.94,9.38-.38,11.86.13Z" style="fill:#e43e32;"></path><rect x="500" y="209" width="47" height="95" style="fill:#177e43;"></rect><path d="M535.5,138c25.04,3.54,30.16,43.24,10.83,55.83-1.56,1.02-8.45,4.17-9.83,4.17h-37.5v-60c11.31,1.15,25.57-1.55,36.5,0Z" style="fill:#177e43;"></path><path d="M574,194v-34h19.5c.39,0,4.72,2.04,5.45,2.55,7.81,5.32,8.4,20.58,2.05,26.96-1.15,1.16-7.38,4.5-8.5,4.5h-18.5Z" style="fill:#e43e32;"></path><path d="M660,160h-21v10h20v12h-20v12h21v12h-33l1.5-58h30c2.38,0,1.3,9.87,1.5,12Z" style="fill:#fefefd;"></path><path d="M721,205.99c-2.47-.52-10.39.81-11.86-.13-1.21-.78-2.27-10.88-4.78-11.72-3.3.23-19.29-1.05-20.47.48-1.66,2.17-2.73,10.16-3.84,10.94-1.88,1.32-8.42-.03-11.06.44l19.1-57.89c3.07.25,11.66-1.2,13.4.89l19.49,57ZM703,185c-2.73-6.98-4.35-14.46-7.05-21.45-.4-1.04-.41-2.41-1.94-2.55-1.88,8.09-6.18,15.72-7.01,24h16Z" style="fill:#fefefd;"></path><path d="M703,185h-16c.83-8.28,5.13-15.91,7.01-24,1.52.14,1.53,1.51,1.94,2.55,2.7,6.98,4.32,14.47,7.05,21.45Z" style="fill:#e43e32;"></path><rect width="819" height="819" style="fill:none;"></rect></g></svg> 