<?xml version="1.0" encoding="UTF-8"?> <!-- Generator: Adobe Illustrator 23.0.1, SVG Export Plug-In . SVG Version: 6.00 Build 0) --> <svg xmlns="http://www.w3.org/2000/svg" xmlns:xlink="http://www.w3.org/1999/xlink" id="Layer_6" x="0px" y="0px" viewBox="0 0 33.1 62.7" style="enable-background:new 0 0 33.1 62.7;" xml:space="preserve"> <title>PIN</title> <path d="M0,62.7c2-3.2,4.3-6.2,6.8-9c2.5-2.8,5.1-5.5,7.8-8.1c2.8-2.6,5.7-5,8.7-7.2c3.1-2.2,6.3-4.1,9.8-5.6 c-3,2.3-5.8,4.7-8.6,7.1s-5.5,4.9-8.2,7.4s-5.4,5.1-8.1,7.7S2.8,60.1,0,62.7z"></path> <path d="M1,38.5c3,0.5,6,1.4,8.8,2.5c2.9,1.1,5.7,2.4,8.4,3.9c2.7,1.5,5.2,3.2,7.6,5.2c2.4,2,4.5,4.3,6.2,6.8 c-2.4-1.9-4.8-3.7-7.3-5.3c-1.3-0.8-2.5-1.6-3.8-2.4s-2.6-1.5-3.9-2.3c-2.6-1.5-5.3-2.8-8-4.2L1,38.5z"></path> <path d="M16.6,0C8.2,0,1.4,6.8,1.4,15.2c0,6.3,8.4,21.4,12.8,28.7c0.8,1.4,2.6,1.8,3.9,1c0.4-0.2,0.8-0.6,1-1 c4.3-7.3,12.8-22.4,12.8-28.7C31.8,6.8,25,0,16.6,0z M22.7,22.7l-0.1,0.1c-3.8,3.7-9.8,3.7-13.5-0.1c-3.7-3.8-3.7-9.8,0.1-13.5 c3.8-3.7,9.8-3.7,13.5,0.1C26.4,13,26.4,19,22.7,22.7L22.7,22.7z"></path> </svg> 