<?xml version="1.0" encoding="UTF-8"?> <svg xmlns="http://www.w3.org/2000/svg" id="Layer_2" viewBox="0 0 1024 1024"><g id="Layer_1-2"><path d="M295.5,548c-9.81-2.12-11.2-21.4,3-23l229.04-.04c29.49,2.19,40.3,43.52,16.39,60.48-4,2.84-9.38,3.6-12.99,7.01-8.36,7.91-16.88,27.66-17.94,39.06-6.53,70.59,78.03,76.91,119,38,50.13-47.61,31.08-127.78,15.7-186.73-2.74-10.51-8.54-20.51-7.71-31.79-10.16-1.59-38.08,5-41.53-7.97-7.03-26.43,35.02-14.16,48.82-17.23,14.73-18.62,33.21-28.63,57.16-29.84,11.02-.55,26.85-1.02,30.28,11.8,3.05,11.42,2.27,54.35,1.25,67.73-.58,7.56-1.93,15.86-9.29,19.73-3.21,1.69-6.13.84-9.21,1.74-1.16.34-1.83-.62-1.44,1.5l48.44,94.56c2.33,2.08,21.12.67,26,1,20.98,1.39,45.68,10.48,63.43,21.57,6.72,4.2,23.78,16.89,28.08,22.92,15.57,21.82-18,21.6-31,22l20.03,18.96c48.38,55.4,17.65,142.68-53.01,159.04-61.13,14.16-118.52-32.55-119.01-94.52h-251.01c-.23,4.15-.34,9.41-1.06,13.44-10.1,56.68-66.83,93.35-122.46,71.59-34.11-13.34-57.26-48.67-58.47-85.03-1.42-1.43-34.17,1.18-40.29-.21-5.06-1.14-8.8-8.34-8.79-13.29,0-12.13,4.04-30.87,7.37-42.71,13.17-46.83,45-87.12,89.29-107.78l-1.57-32c-4.81-.7-12.07.96-16.5,0ZM712,420c-20.71-1.09-49.47,9.67-47.05,34.55,2.08,21.39,31.37,19.55,47.05,20.45v-55ZM701,720c8.77-42.49,47.67-69.88,88.79-76.71,17.05-2.83,33.8-1.97,50.75-3.25,1.05-.08,4.49-.12,4.44-1.54-.02-.58-8.5-5.27-9.96-6.02-14.05-7.24-32.67-12.54-48.48-13.52-12.89-.8-30.63,4.42-38.97-7.03l-57.67-111.33c-2.64-3.44-11.06-.79-14.9-1.59,7.62,33.47,16.59,67.74,12.99,102.48-7.23,69.7-56.94,120.25-129.47,114.5-64.57-5.12-87.06-73.48-56.52-124.97l-137.54-.05c-67.39,6.99-114.56,63.82-122.46,129.04h459ZM335,548v22.5c0,3.44,11.75-.91,13.77-1.23,5.74-.9,12.98-1.99,18.69-2.31,51.33-2.91,105.34,2.34,156.95-.05,13.41-1.89,9.07-18.91,1.09-18.91h-190.5ZM740.62,694.63c-29.28,34.03-21.25,87.44,17.08,111.17,46.59,28.85,108.69-2.7,112.29-57.32,3.36-50.92-44.32-87.89-92.98-75.47l26.75,60.72c3.88,13.88-14.15,21.69-21.61,9.62-8.08-20.7-19.06-40.39-26.15-61.36-2.02-1.83-13.72,10.71-15.37,12.63ZM423,744h-132c4.48,89.28,128.04,88.58,132,0Z" style="fill:#04825e;"></path><path d="M522.66,174.35c7.54,13.97,22.54,29.55,29.17,43.33,4.64,9.65.17,17.54-2.56,27.09-10.05,35.2-22.2,69.93-33.01,104.91,12.2,23.67,27.81,45.65,40.31,69.26-1.15,22.06,3.01,49.09.45,70.59-.9,7.54-8.6,10.54-15.48,10.52H218.46c-7.43-.28-13.54-3.63-14.49-11.52-1.28-10.62-1.55-58.1.47-67.58.67-3.15,4.03-8.18,5.75-11.25,10.99-19.69,24.3-38.21,34.78-58.24l-37.52-119.41c-1.12-6.1-.86-8.72,2.14-13.96,4.58-8.01,25.16-36.59,31.37-42.63,1.6-1.56,3.23-2.82,5.31-3.69,90.31-1.34,181.21-1.16,271.55-.09l4.83,2.67ZM521,216c-2.55-3.76-12.05-20.35-15.62-20.72-1.48-.15-3.79.79-5.83.77-78.36-.72-156.74.52-235.09,0-3.17-.02-6.63-1.93-9.17.24-3.77,3.23-9.22,15.51-13.28,19.7h279ZM525,240H236l34.08,112.5c.16,2.37-.82,4.3-1.7,6.39-7.18,17.17-23.33,36.22-31.5,53.5l-2.88,2.62h64c-32.56-36.98-31.22-89.34,2.03-125.47,47.37-51.49,140.2-42.21,175.14,18.81,20.06,35.02,14.05,77.53-13.17,106.67h65c-9.22-17.63-22.28-34.68-31.17-52.33-1.5-2.97-3.77-6.84-3.87-10.2-.17-5.13,5.06-19.37,6.78-25.24,8.51-29.11,19.1-57.84,26.27-87.23ZM373.8,278.3c-75.02,5.01-107.79,93.46-41.87,136.28,29.15-1.1,61.84,2.93,90.61.46,19.27-1.65,37.85-30.18,41.19-47.81,10.02-52.93-40.65-92.22-89.93-88.93ZM533,438H228v38h305v-38Z" style="fill:#eb252c;"></path><path d="M207.66,653.66c-2.22,2.22-6.08,3.09-9.12,3.37-29.09,2.72-62.44-2.07-91.98-.1-12.14-3.83-12.25-20.1,0-23.89l93.97-.08c10.14.69,13.94,13.89,7.14,20.69Z" style="fill:#04825e;"></path><path d="M159.73,579.23c24.02,1.43,52.09-2.76,75.64-.1,15.33,1.73,15.84,19.81,2.06,23.81h-76.87c-12.42-1.92-13.01-20.65-.84-23.71Z" style="fill:#04825e;"></path><path d="M192.65,688.39c2.59,1.38,6.52,8.85,6.32,11.98-.33,5.07-5.51,10.84-10.54,11.56-9.44,1.35-47.58,1.43-56.87,0-13.24-2.04-13.26-22.83,0-24.87,16.51-2.55,38.82,1.8,55.98-.1,2.15-.24,3.37.51,5.11,1.43Z" style="fill:#04825e;"></path><path d="M415.78,346.28c35.14-3.17,40.33,50.6,6.61,54.61-37.33,4.44-42.73-51.35-6.61-54.61ZM417.72,367.16c-13.13,2.06-.15,20.61,6.33,9.39,2.49-4.32-1.89-10.09-6.33-9.39Z" style="fill:#eb252c;"></path><path d="M359.78,295.29c36.1-4.32,40.93,49.32,7.64,53.63-35.4,4.58-43.11-49.38-7.64-53.63ZM360.73,316.18c-6.56,1.88-4.44,14.3,4.56,11.62,6.91-2.06,3.92-14.05-4.56-11.62Z" style="fill:#eb252c;"></path><path d="M373.65,382.35c10.9,12.15-5.96,29.02-17.2,16.7s7.1-27.96,17.2-16.7Z" style="fill:#eb252c;"></path><path d="M426.69,313.32c9.31,9.1-5.24,27.54-16.73,17.23-12.59-11.3,4.94-28.77,16.73-17.23Z" style="fill:#eb252c;"></path><path d="M325.73,356.24c20.19-4.15,20.04,24.71,1.88,22.69-12.74-1.41-13.2-20.37-1.88-22.69Z" style="fill:#eb252c;"></path><rect width="1024" height="1024" style="fill:none;"></rect></g></svg> 