<?xml version="1.0" encoding="UTF-8"?> <svg xmlns="http://www.w3.org/2000/svg" id="Layer_2" viewBox="0 0 1021.21 1021.21"><g id="Layer_1-2"><path d="M557.21,260.21h73.5c3.07,0,9.36,6.08,10.7,9.3,3.7,8.92,2.73,27.76,3.81,38.19,4.34,42.19,10.27,86.7,14.68,129.14.31,2.94-1.22,6.18,1.34,9.75-.87.41-1.83,1.88-2.3,2.17-7.85,4.76-20.16,8.57-29.02,13.65-20.11,11.53-38.56,27.85-53.22,45.78-2.54,3.11-13.42,19.86-14.49,20.51-3.16,1.91-11.85-1.23-15.47,2.53l-14.54,43.97-17.24-44.73c-2.26-2.16-26.46-1.85-26.79.3l30.98,72.99c.62,1.94.92,3.88,1.09,5.91.75,8.71-1.93,34.48.63,40.32,1.9,4.33,11.22-.32,12.57,3.46,8.21,49.37,29.33,96.51,68.29,128.72l19.46,14.02-13.45,1.06H126.66c-20.32-.08-35.81-12.37-35.51-33.58,13.37-127.35,27.63-254.63,41.04-381.98,3.33-31.58,5.24-63.48,9.01-94.99,1.39-11.59,1.05-24.47,15.49-26.51l69.57-.43c4.34-21.51,3.95-44.36,7.06-65.94.66-4.55,1.35-8.49,3.34-12.66,2.93-6.13,33.39-36.57,39.53-39.47,4.27-2.02,9.81-2.8,14.48-3.52,65.17,3.67,135.5-4.76,200.07,0,17.61,1.3,24.3,8.32,36.48,19.52,10.25,9.43,23.06,20.26,23.98,35.02l6.01,67.49ZM495.21,260.21v-54.5c0-5.69-11.22-15.99-17.5-15.5l-173.56.45c-6.67,1.41-13.57,8.67-14.7,15.3-2.79,16.39,2.37,37.58-1.24,54.26h207ZM205.71,389.21c5.65,1.71,19.83-1.27,26.5,0v101.5c0,4.58,23.61,4.9,25.52,1.52.19-.33,1.48-7.14,1.48-7.52v-95.5h22.5c5.12,0,4.2-20.83,2.53-22.53-.49-.5-1.33-.73-1.97-1.03l-72.61-.51c-8.98-1.82-7.55,22.97-3.94,24.06ZM358.44,492.99c1.25,1.28,25.18,3.5,25.73-2.2-10.61-37.85-17.77-76.78-28.45-114.59-.99-3.51-1.72-9.35-5.45-10.55-2.87-.93-22.13-.94-25.34-.23-2.52.56-4.45,2.45-5.04,4.96l-29.61,121.19c1.16,3.54,21.66,3.54,24.88,1.08,2.88-2.19,4.14-18.07,6.15-22.35l31.29-.16c1.74.48,4.02,20.98,5.83,22.84ZM428.21,415.21v-46.5c0-.28-1.55-2.73-2-3-2.06-1.25-23-1.42-23,2v122c0,6.17,21.14,5.98,23.92,1.92,3.14-4.57-.3-30.22,1.12-37.88.33-1.79,5.68-10.22,7.12-11.88.89-1.03.98-2.09,2.83-1.66l24.31,52.69c2.63,1.95,24.48,1.91,25.57.18,1.34-2.12-2.58-9.94-3.7-12.55-8.85-20.68-20.76-40.89-29.16-61.9-.14-2.24,1.23-3.91,2.19-5.73,3.57-6.77,27.87-41.81,27.82-45.24-.01-.94-.97-2.45-1.52-2.45h-24c-.53,0-2.05,1.17-2.54,1.75l-26.13,45.58-2.84,2.67ZM577.21,469.21h-44v-27h31.5c.28,0,2.73-1.55,3-2,1.25-2.06,1.42-23-2-23h-32.5v-28h39.5c.73,0,3.96-1.58,4.34-2.66,1.08-3.06,1.76-18.85-.43-20.46-4.5-3.3-54.64.71-63.96-.93l-3.96,2.04-.55,122.56c-.15,3.43,2.71,4.14,5.54,4.46l61.61-.46c2.48-.47,2.68-2.92,2.91-5.04.29-2.72.25-18.72-1-19.52ZM182.71,652.21c2.79.85,15.82,0,20,0,5.61,0,6.19-18.71,8.43-22.57l30.95-.31c1.71,1.51,3.25,18.66,5.03,21.23.29.41,3.25,1.64,3.59,1.64h19c3.35,0,2.82-4.7,2.04-7.05l-30.48-114.26c-1.99-2.97-25.31-2.01-29.82-.44l-30.28,119.27c-.03.89.8,2.27,1.53,2.49ZM296.71,529.21c-3.07-.88-15.64,0-20,0-3.36,0-2.79,4.84-2.22,7.23l24.26,113.73c2.04,3.08,22.96,2.96,24.54.38l15.91-71.34,14.2,70.31c2.11,3.72,15.01,3.17,19.37,2.74,6.57-.65,5.51-4.5,6.96-10.04,9.14-35.15,14.61-71.4,23.42-106.65.93-1.67-.98-6.36-2.43-6.36h-19c-.28,0-2.04,2.01-2.38,2.62l-13.13,76.38c-2.77.77-2.33-2.71-2.83-4.66-5.98-22.99-7.75-48.41-13.38-71.63-1.05-4.49-19.98-3.08-21.55-1.48l-15.25,78.76c-2.02-.41-1.66-2.08-1.98-3.51-4.94-22.49-6.06-48.71-11.46-70.54-.43-1.73-1.19-5.41-3.05-5.95ZM463.98,530.45c-1.7-1.69-25.33-1.91-27.77-.74-1.01.48-1.67,1.83-2.2,2.8-4.83,8.98-8.89,35.46-11.87,46.94-.35,1.34-.84,2.82-1.35,4.8-5.71,22.01-11.43,44.07-17.57,65.95,4.71,2.2,21.54,3.49,25,.51,1.77-1.52,4.14-17.95,5.05-21.45l30.38-.1,4.78,21.83c2.35,1.9,25.57,1.78,26.65.08l-31.09-120.62Z" style="fill:#d13527;"></path><path d="M830.8,479.63c97.58,64.78,111.96,210.72,22.89,289.55-129.76,114.84-334.07,8.81-307.18-165.18,20.6-133.32,171.58-199.2,284.3-124.37ZM590.78,702.61c62.19,123.44,249.49,106.5,286.14-27.18,29.19-106.43-59.46-209.98-169.09-196.09-105.21,13.34-164.34,129.42-117.06,223.27Z" style="fill:#137850;"></path><path d="M325.21,448.21c3.26-15.19,5.73-30.8,9.67-45.83.34-1.29.76-5.87,2.82-5.18l10.51,51.01h-23Z" style="fill:#d13527;"></path><polygon points="436.21 608.21 448.7 560.21 459.21 608.21 436.21 608.21" style="fill:#d13527;"></polygon><polygon points="238.21 608.21 215.21 608.21 226.22 560.22 238.21 608.21" style="fill:#d13527;"></polygon><path d="M821.81,627.62c56.42,43.15-15.91,127.56-68.49,76.99-45.11-43.39,16.26-116.93,68.49-76.99Z" style="fill:#d13527;"></path><path d="M681.99,517.49c21.05-2.54,41.06,6.27,51.74,24.7,26.83,46.31-25.45,96.22-70.82,69.82-40.86-23.77-27.79-88.87,19.08-94.52Z" style="fill:#d13527;"></path><path d="M689.87,695.87c-8.23,9.62-19.09,4.1-28.33-.48-11.12-5.51-25.37-16.13-33.35-25.65-5.68-6.78-9.74-14.94-2.82-22.87,14.53-16.65,28.78,7.74,39.91,15.78,7.61,5.5,22.55,9.91,26.11,17.89,2.49,5.57,2.62,10.5-1.53,15.34Z" style="fill:#137850;"></path><path d="M795.94,548.44c31.41-6.46,36.06,45.38-.16,39.71-19.39-3.03-19.81-35.6.16-39.71Z" style="fill:#d13527;"></path><path d="M729.9,745.9c-.21.3-4.92,4.62-5.5,4.99-21.56,13.61-41.51-18.77-20.93-31.92,18.23-11.65,38.48,9.83,26.43,26.93Z" style="fill:#d13527;"></path><rect width="1021.21" height="1021.21" style="fill:none;"></rect></g></svg> 